<svg id="Ebene_1" data-name="Ebene 1" xmlns="http://www.w3.org/2000/svg" viewBox="0 0 127.82 59"><defs><style>.cls-1{fill:#11458d;}</style></defs><title>jedox-logo-128x64px</title><path class="cls-1" d="M60.47,20.24,57.68,33.78a3.91,3.91,0,0,1-.26.75,2.43,2.43,0,0,1-2.19,1.3H48.56a2,2,0,0,1-1.34-.56,1.09,1.09,0,0,1-.12-.88L49.68,21.9a1.93,1.93,0,0,1,.36-.75,2.43,2.43,0,0,1,2-.88ZM70.76,2.5H64.12L61.83,13.65H50.53a6.38,6.38,0,0,0-2.16.42,8,8,0,0,0-5.1,6.13l-3.2,15.53a8.69,8.69,0,0,0-.15,2.69v.08c.75,2.63,2.38,3.94,4.85,3.94H56.45A5.83,5.83,0,0,0,58.82,42c2.78-1.18,4.44-3,4.93-5.36ZM86.44,20.16h-7a2.47,2.47,0,0,0-2.24,1.32,6.18,6.18,0,0,0-.23.73L74.55,33.94c-.24,1.15.27,1.55.76,1.75a3.82,3.82,0,0,0,.68.07h6.25a2.51,2.51,0,0,0,2.23-1.33,6.14,6.14,0,0,0,.22-.73L87.1,21.94s.44-1.75-.69-1.75m7.82-.67-3.5,17c-.49,2.37-2.14,4.17-4.9,5.36a6,6,0,0,1-2.37.42h-11c-2.94,0-4.72-1.56-5.15-4.54a3.88,3.88,0,0,1,.08-1.4l3.5-17C71.36,17,73,15.19,75.81,14a6,6,0,0,1,2.36-.46H89.25c2.91,0,4.67,1.58,5.07,4.54a3.89,3.89,0,0,1-.08,1.4m-89.3,42-4.85-8,8.3-39.66h6.53Zm13.66-19,16.12-.06,1.35-6.58-13.93.05a4.91,4.91,0,0,1-.66-.06,1.37,1.37,0,0,1-.77-1.75L23.1,22.53a2.4,2.4,0,0,1,2.57-2.22h6.14a3.68,3.68,0,0,1,.66.06,1.37,1.37,0,0,1,.77,1.75l-.14.67a6,6,0,0,1-.22.72,2.47,2.47,0,0,1-2.24,1.32H25.39l-1.34,6.55h7.89A5.62,5.62,0,0,0,34.3,31c2.79-1.18,4.45-3,4.94-5.35l1.21-5.93a3.88,3.88,0,0,0,.08-1.4c-.42-3-2.21-4.55-5.15-4.55l-11.32,0a7.92,7.92,0,0,0-2.22.41h-.09c-2.63,1.36-4.24,3.1-4.66,5.17L13.55,36.59a3.89,3.89,0,0,0-.08,1.4c.43,3,2.21,4.55,5.15,4.55m105.79-.06a3.51,3.51,0,1,1,3.5-3.51A3.51,3.51,0,0,1,124.41,42.48Zm-33.86-.19h7.87l.13-.08c.17-.1.49-.29,7.4-8.36,1.19,2.58,2.13,4.55,2.77,5.89,1.19,2.51,1.19,2.51,1.58,2.51h7.19c.06-.24-.08-.8-6.35-14.34l11.47-13.22-.42-8.76L108.35,21.84c-1.18-2.57-2.09-4.54-2.71-5.87-1.17-2.47-1.17-2.47-1.54-2.47H96.6l6.61,14.25Zm-77.66-32a3.5,3.5,0,1,1,3.5-3.5A3.5,3.5,0,0,1,12.89,10.3Z" transform="translate(-0.09 -2.5)"/></svg>