<?xml version="1.0" encoding="UTF-8"?>
<svg xmlns="http://www.w3.org/2000/svg" xmlns:xlink="http://www.w3.org/1999/xlink" xmlns:svgjs="http://svgjs.com/svgjs" version="1.1" width="512" height="512" x="0" y="0" viewBox="0 0 62 62" style="enable-background:new 0 0 512 512" xml:space="preserve" class="">
  <g>
    <g xmlns="http://www.w3.org/2000/svg">
      <path d="m62 30v-21.414l-8.586-8.586h-17.414v30h12v4h-7v8h-4v-8h-2.866l.942-1.793-1.076-1.077v-4.13c0-1.654-1.346-3-3-3h-1v-2h1c1.654 0 3-1.346 3-3v-4c0-1.654-1.346-3-3-3h-1v-2h1c1.654 0 3-1.346 3-3v-4c0-1.654-1.346-3-3-3h-24c-1.654 0-3 1.346-3 3v4c0 1.654 1.346 3 3 3h1v2h-1c-1.654 0-3 1.346-3 3v4c0 1.654 1.346 3 3 3h1v2h-1c-1.654 0-3 1.346-3 3v4.13l-1.064 1.064 1.244 2.509c-.653 1.164-1.165 2.399-1.527 3.685l-2.653.893v7.438l2.653.894c.362 1.285.874 2.521 1.527 3.685l-1.244 2.509 5.258 5.259 2.509-1.245c1.165.654 2.4 1.166 3.685 1.527l.894 2.652h7.437l.894-2.653c1.284-.361 2.52-.873 3.685-1.527l2.509 1.245 5.264-5.265-.917-1.8h2.846v-8h4v8h16v-18h-7v-4zm-30-3v2.13l-2.194-2.194-2.509 1.244c-1.164-.653-2.399-1.165-3.685-1.527l-.22-.653h7.608c.551 0 1 .449 1 1zm-26-20v-4c0-.551.449-1 1-1h24c.551 0 1 .449 1 1v4c0 .551-.449 1-1 1h-24c-.551 0-1-.449-1-1zm4 3h18v2h-18zm-4 9v-4c0-.551.449-1 1-1h24c.551 0 1 .449 1 1v4c0 .551-.449 1-1 1h-24c-.551 0-1-.449-1-1zm4 3h18v2h-18zm-4 5c0-.551.449-1 1-1h7.608l-.22.653c-1.285.362-2.521.874-3.685 1.527l-2.509-1.244-2.194 2.194zm26.629 26.413-3.222 3.222-2.196-1.09-.47.284c-1.29.779-2.684 1.357-4.144 1.718l-.533.131-.782 2.322h-4.563l-.782-2.322-.533-.131c-1.46-.36-2.854-.938-4.144-1.718l-.47-.284-2.196 1.09-3.227-3.228 1.09-2.196-.285-.47c-.779-1.288-1.357-2.683-1.717-4.145l-.132-.533-2.323-.782v-4.563l2.322-.782.132-.533c.36-1.462.938-2.856 1.717-4.145l.285-.47-1.09-2.196 3.227-3.227 2.196 1.09.47-.285c1.288-.779 2.682-1.357 4.144-1.718l.533-.131.782-2.321h4.563l.782 2.322.533.131c1.462.36 2.856.938 4.144 1.718l.47.285 2.196-1.09 3.214 3.214-.745 1.42h-3.517c-2.445-2.54-5.822-4-9.358-4-7.168 0-13 5.832-13 13s5.832 13 13 13c3.535 0 6.915-1.461 9.359-4h3.551zm-24.203-7.413c-.183-.645-.313-1.313-.376-2h4.978v-2h-4.977c.062-.688.192-1.355.376-2h4.573v-2h-3.786c.366-.714.8-1.387 1.307-2h4.479v14h-4.479c-.507-.613-.941-1.286-1.307-2h3.786v-2zm8.574 6v-8h4v8h4.309c-1.835 1.285-4.034 2-6.309 2-2.346 0-4.517-.744-6.305-2zm4-18v8h-4v-8h-4.305c1.787-1.256 3.959-2 6.305-2 2.275 0 4.472.716 6.307 2zm14 16h-12v-14h12zm20 0h-12v-14h12zm-1-46.586 4.586 4.586h-4.586zm-16-1.414h14v8h8v18h-22z" fill="#d4202b" data-original="#000000" style="" class=""/>
      <path d="m25 38h8v2h-8z" fill="#d4202b" data-original="#000000" style="" class=""/>
      <path d="m33 42h-8v6h8zm-2 4h-4v-2h4z" fill="#d4202b" data-original="#000000" style="" class=""/>
      <path d="m45 38h8v2h-8z" fill="#d4202b" data-original="#000000" style="" class=""/>
      <path d="m45 42h8v2h-8z" fill="#d4202b" data-original="#000000" style="" class=""/>
      <path d="m45 46h8v2h-8z" fill="#d4202b" data-original="#000000" style="" class=""/>
      <path d="m56 12h-6v4h-4v4h-4v4h-2v2h18v-2h-2zm-4 2h2v10h-2v-8zm-4 4h2v6h-2v-4zm-4 4h2v2h-2z" fill="#d4202b" data-original="#000000" style="" class=""/>
      <path d="m40 4h10v2h-10z" fill="#d4202b" data-original="#000000" style="" class=""/>
      <path d="m40 8h10v2h-10z" fill="#d4202b" data-original="#000000" style="" class=""/>
    </g>
  </g>
</svg>
