<?xml version="1.0" encoding="UTF-8"?>
<svg xmlns="http://www.w3.org/2000/svg" xmlns:xlink="http://www.w3.org/1999/xlink" xmlns:svgjs="http://svgjs.com/svgjs" version="1.1" width="512" height="512" x="0" y="0" viewBox="0 0 512 512" style="enable-background:new 0 0 512 512" xml:space="preserve" class="">
  <g>
    <g xmlns="http://www.w3.org/2000/svg">
      <path d="M476,48H36A28.031,28.031,0,0,0,8,76V372a28.031,28.031,0,0,0,28,28H198.24l-4.8,24H160a8,8,0,0,0-8,8v24a8,8,0,0,0,8,8H352a8,8,0,0,0,8-8V432a8,8,0,0,0-8-8H318.56l-4.8-24H476a28.031,28.031,0,0,0,28-28V76A28.031,28.031,0,0,0,476,48ZM344,440v8H168v-8ZM209.76,424l4.8-24h82.88l4.8,24ZM488,372a12.01,12.01,0,0,1-12,12H36a12.01,12.01,0,0,1-12-12V352H488Zm0-36H24V76A12.01,12.01,0,0,1,36,64H476a12.01,12.01,0,0,1,12,12Z" fill="#808080" data-original="#000000" style="" class=""/>
      <path d="M264,360H248a8,8,0,0,0,0,16h16a8,8,0,0,0,0-16Z" fill="#808080" data-original="#000000" style="" class=""/>
    </g>
  </g>
</svg>
