<?xml version="1.0" encoding="UTF-8"?>
<svg xmlns="http://www.w3.org/2000/svg" xmlns:xlink="http://www.w3.org/1999/xlink" xmlns:svgjs="http://svgjs.com/svgjs" version="1.1" width="512" height="512" x="0" y="0" viewBox="0 0 64 64" style="enable-background:new 0 0 512 512" xml:space="preserve" class="">
  <g>
    <g xmlns="http://www.w3.org/2000/svg">
      <path d="m63 19.777v-7.555l-2.802-.713c-.119-.318-.252-.639-.4-.956l1.48-2.489-5.342-5.342-2.489 1.479c-.317-.147-.637-.281-.956-.4l-.714-2.801h-7.555l-.712 2.802c-.319.119-.639.253-.956.4l-2.489-1.479-5.342 5.342.692 1.163c-.793-.149-1.599-.228-2.415-.228-6.852 0-12.482 5.328-12.966 12.058-3.958.478-7.034 3.858-7.034 7.942h-3.414l-8.586 8.586v25.414h28v-8h6.586l4 4h2.598c.414 1.161 1.514 2 2.816 2 1.654 0 3-1.346 3-3s-1.346-3-3-3c-1.302 0-2.402.839-2.816 2h-1.77l-4-4h-7.414v-2h21.184c.414 1.161 1.514 2 2.816 2 1.654 0 3-1.346 3-3s-1.346-3-3-3c-1.302 0-2.402.839-2.816 2h-21.184v-2h7.414l4-4h1.77c.414 1.161 1.514 2 2.816 2 1.654 0 3-1.346 3-3s-1.346-3-3-3c-1.302 0-2.402.839-2.816 2h-2.598l-4 4h-6.586v-8h28c3.309 0 6-2.691 6-6 0-2.334-1.386-4.4-3.404-5.383l1.682-1.682-1.48-2.489c.147-.317.281-.638.4-.956zm-18 37.223c.551 0 1 .448 1 1s-.449 1-1 1-1-.448-1-1 .449-1 1-1zm8-8c.551 0 1 .448 1 1s-.449 1-1 1-1-.448-1-1 .449-1 1-1zm-8-8c.551 0 1 .448 1 1s-.449 1-1 1-1-.448-1-1 .449-1 1-1zm-36-8.586v4.586h-4.586zm18 28.586h-24v-22h8v-8h16zm34-30c0 2.206-1.794 4-4 4h-28v-6h-14c0-3.309 2.691-6 6-6h1v-1c0-6.065 4.935-11 11-11 .974 0 1.93.129 2.857.378-.017.044-.039.088-.055.131l-2.802.714v7.555l2.802.713c.119.318.252.639.4.956l-1.48 2.489 5.342 5.342 2.489-1.479c.317.147.637.281.956.4l.714 2.801h7.555l.713-2.802c.319-.119.639-.253.956-.4l2.489 1.479 2.12-2.12c1.704.471 2.944 2.037 2.944 3.843zm-2.236-7.379-3.143 3.143-2.096-1.246-.493.256c-.558.288-1.124.525-1.683.704l-.528.168-.598 2.354h-4.445l-.599-2.354-.528-.168c-.559-.179-1.125-.416-1.683-.704l-.493-.256-2.096 1.246-3.143-3.143 1.246-2.095-.254-.492c-.289-.56-.525-1.126-.704-1.686l-.169-.528-2.355-.597v-4.445l2.354-.598.169-.528c.179-.56.415-1.126.704-1.686l.254-.492-1.246-2.095 3.143-3.143 2.096 1.246.493-.256c.558-.288 1.124-.525 1.683-.704l.528-.168.599-2.354h4.445l.599 2.354.528.168c.559.179 1.125.416 1.683.704l.493.256 2.096-1.246 3.143 3.143-1.246 2.095.254.492c.289.56.525 1.126.704 1.686l.169.528 2.355.597v4.445l-2.354.598-.169.528c-.179.56-.415 1.126-.704 1.686l-.254.492z" fill="#d4202b" data-original="#000000" style=""/>
      <path d="m48 7c-4.962 0-9 4.037-9 9s4.038 9 9 9 9-4.037 9-9-4.038-9-9-9zm0 16c-3.86 0-7-3.141-7-7s3.14-7 7-7 7 3.141 7 7-3.14 7-7 7z" fill="#d4202b" data-original="#000000" style=""/>
      <path d="m48 11c-2.757 0-5 2.243-5 5s2.243 5 5 5 5-2.243 5-5-2.243-5-5-5zm0 8c-1.654 0-3-1.346-3-3s1.346-3 3-3 3 1.346 3 3-1.346 3-3 3z" fill="#d4202b" data-original="#000000" style=""/>
      <path d="m25 39v-6h-12v6zm-10-4h8v2h-8z" fill="#d4202b" data-original="#000000" style=""/>
      <path d="m23 57h-2v-6h-2v6h-2v-2h-2v2h-2v-4h-2v4h-2v-6h-2v6h-2v2h20v-10h-2z" fill="#d4202b" data-original="#000000" style=""/>
      <path d="m5 41h2v2h-2z" fill="#d4202b" data-original="#000000" style=""/>
      <path d="m9 41h16v2h-16z" fill="#d4202b" data-original="#000000" style=""/>
      <path d="m5 45h20v2h-20z" fill="#d4202b" data-original="#000000" style=""/>
      <path d="m24 22c0 .377.023.755.07 1.124l1.984-.248c-.035-.287-.054-.579-.054-.876 0-2.491 1.341-4.815 3.5-6.064l-1.001-1.73c-2.775 1.604-4.499 4.591-4.499 7.794z" fill="#d4202b" data-original="#000000" style=""/>
    </g>
  </g>
</svg>
