<?xml version="1.0" encoding="UTF-8"?>
<svg xmlns="http://www.w3.org/2000/svg" xmlns:xlink="http://www.w3.org/1999/xlink" xmlns:svgjs="http://svgjs.com/svgjs" version="1.1" width="512" height="512" x="0" y="0" viewBox="0 0 512.041 512.041" style="enable-background:new 0 0 512 512" xml:space="preserve" class="">
  <g>
    <g xmlns="http://www.w3.org/2000/svg">
      <path d="m503.146 350.653-9.238-5.554c-.483-.29-.889-.702-1.172-1.193l-20.46-35.438c-.282-.49-.438-1.048-.447-1.614l-.19-10.772c-.111-6.399-3.625-12.364-9.171-15.567l-18.168-10.49c-5.544-3.199-12.466-3.26-18.065-.158l-9.426 5.223c-.495.274-1.057.42-1.623.42h-4.706v-195.018c0-1.989-.79-3.896-2.196-5.304l-72.972-72.971c-1.407-1.406-3.314-2.196-5.304-2.196h-182.1c-4.143 0-7.5 3.357-7.5 7.5s3.357 7.5 7.5 7.5h174.6v60.386c0 6.939 5.646 12.586 12.586 12.586h60.386v187.517h-21.212c-.565 0-1.126-.145-1.622-.42l-9.427-5.223c-5.6-3.103-12.521-3.041-18.065.159l-18.169 10.49c-5.543 3.201-9.057 9.165-9.17 15.564l-.19 10.775c-.01.566-.164 1.124-.447 1.614l-20.458 35.436c-.284.491-.69.904-1.176 1.196l-9.237 5.552c-5.485 3.299-8.894 9.324-8.894 15.726v20.978c0 6.401 3.408 12.427 8.895 15.726l9.237 5.553c.484.291.891.704 1.174 1.194l20.46 35.438c.282.489.437 1.047.446 1.614l.19 10.774c.113 6.399 3.627 12.363 9.171 15.565l18.167 10.487c2.82 1.63 5.997 2.445 9.177 2.445 3.068 0 6.139-.761 8.89-2.284l9.428-5.224c.495-.274 1.056-.419 1.621-.419h21.212v14.4c0 2.423-1.971 4.394-4.394 4.394h-371.692c-2.423 0-4.395-1.971-4.395-4.394v-473.213c0-2.422 1.972-4.393 4.395-4.393h98.527c4.143 0 7.5-3.357 7.5-7.5s-3.357-7.5-7.5-7.5h-98.527c-10.695.001-19.395 8.7-19.395 19.393v473.214c0 10.693 8.7 19.394 19.395 19.394h371.691c10.693 0 19.394-8.7 19.394-19.394v-14.4h4.706c.566 0 1.128.146 1.623.42l9.426 5.223c5.603 3.103 12.522 3.04 18.066-.16l18.168-10.489c5.545-3.202 9.059-9.167 9.17-15.564l.19-10.776c.01-.564.165-1.122.448-1.613l20.46-35.438c.282-.489.688-.901 1.174-1.193l9.235-5.552c5.486-3.298 8.895-9.323 8.895-15.726v-20.978c0-6.404-3.408-12.43-8.895-15.728zm-165.638-325.026 47.365 47.365h-47.365zm159.533 361.729c0 1.168-.622 2.269-1.623 2.87l-9.232 5.55c-2.662 1.599-4.889 3.865-6.439 6.553l-20.458 35.436c-1.553 2.688-2.402 5.749-2.457 8.851l-.19 10.776c-.021 1.167-.662 2.255-1.673 2.839l-18.167 10.488c-1.012.585-2.275.596-3.297.029l-9.426-5.223c-2.715-1.504-5.79-2.299-8.893-2.299h-40.918c-3.104 0-6.179.795-8.892 2.299l-9.427 5.223c-1.022.566-2.284.554-3.296-.029l-18.167-10.487c-1.012-.585-1.653-1.674-1.674-2.842l-.19-10.772c-.055-3.104-.903-6.165-2.455-8.852l-20.46-35.438c-1.552-2.688-3.777-4.952-6.436-6.55l-9.235-5.552c-1.002-.602-1.624-1.702-1.624-2.87v-20.978c0-1.168.622-2.269 1.623-2.87l9.235-5.551c2.659-1.599 4.885-3.863 6.438-6.552l20.458-35.436c1.553-2.688 2.401-5.748 2.456-8.851l.19-10.774c.021-1.168.662-2.257 1.673-2.841l18.168-10.489c1.01-.585 2.274-.595 3.296-.028l9.426 5.222c2.714 1.505 5.789 2.3 8.893 2.3h40.918c3.103 0 6.178-.795 8.893-2.299l9.426-5.223c1.021-.567 2.284-.557 3.297.028l18.166 10.488c1.012.585 1.653 1.673 1.674 2.842l.19 10.773c.055 3.103.904 6.163 2.456 8.851l20.458 35.435c1.552 2.689 3.778 4.956 6.438 6.553l9.235 5.552c1.001.602 1.623 1.701 1.623 2.87v20.978z" fill="#d4202b" data-original="#000000" style=""/>
      <path d="m394.727 307.384c-38.313 0-69.483 31.17-69.483 69.483s31.17 69.484 69.483 69.484c16.884 0 33.169-6.144 45.855-17.3 3.111-2.734 3.415-7.474.68-10.584-2.735-3.112-7.475-3.416-10.584-.68-9.947 8.746-22.715 13.563-35.951 13.563-30.042 0-54.483-24.441-54.483-54.484 0-30.042 24.441-54.483 54.483-54.483 30.043 0 54.484 24.441 54.484 54.483 0 6.612-1.181 13.09-3.51 19.252-1.465 3.875.489 8.203 4.364 9.667 3.873 1.464 8.203-.489 9.667-4.364 2.972-7.863 4.479-16.125 4.479-24.555 0-38.312-31.171-69.482-69.484-69.482z" fill="#d4202b" data-original="#000000" style=""/>
      <path d="m116.224 287.379v-105.203c0-4.143-3.357-7.5-7.5-7.5h-55.5c-4.143 0-7.5 3.357-7.5 7.5v105.203c0 4.143 3.357 7.5 7.5 7.5h55.5c4.142 0 7.5-3.358 7.5-7.5zm-15-7.5h-40.5v-90.203h40.5z" fill="#d4202b" data-original="#000000" style=""/>
      <path d="m127.263 232.176v55.203c0 4.143 3.357 7.5 7.5 7.5h55.5c4.143 0 7.5-3.357 7.5-7.5v-55.203c0-4.143-3.357-7.5-7.5-7.5h-55.5c-4.143 0-7.5 3.357-7.5 7.5zm15 7.5h40.5v40.203h-40.5z" fill="#d4202b" data-original="#000000" style=""/>
      <path d="m162.513 47.649c-4.143 0-7.5 3.357-7.5 7.5v85.08c0 4.143 3.357 7.5 7.5 7.5h147.467c4.143 0 7.5-3.357 7.5-7.5s-3.357-7.5-7.5-7.5h-139.967v-77.58c0-4.142-3.358-7.5-7.5-7.5z" fill="#d4202b" data-original="#000000" style=""/>
      <path d="m193.304 116.754 35.26-15.638 44.993 20.136c.974.436 2.019.654 3.063.654.967 0 1.934-.187 2.847-.562l26.205-10.75c3.832-1.571 5.664-5.953 4.092-9.785s-5.953-5.67-9.785-4.092l-23.229 9.529-45.109-20.186c-1.94-.868-4.158-.872-6.104-.01l-38.314 16.993c-3.786 1.679-5.494 6.109-3.814 9.896 1.676 3.786 6.108 5.494 9.895 3.815z" fill="#d4202b" data-original="#000000" style=""/>
      <path d="m43.616 78.784h4.761c4.143 0 7.5-3.357 7.5-7.5s-3.357-7.5-7.5-7.5h-4.761c-4.143 0-7.5 3.357-7.5 7.5s3.358 7.5 7.5 7.5z" fill="#d4202b" data-original="#000000" style=""/>
      <path d="m65.495 71.284c0 4.143 3.357 7.5 7.5 7.5h54.76c4.143 0 7.5-3.357 7.5-7.5s-3.357-7.5-7.5-7.5h-54.76c-4.142 0-7.5 3.358-7.5 7.5z" fill="#d4202b" data-original="#000000" style=""/>
      <path d="m43.616 111.156h4.761c4.143 0 7.5-3.357 7.5-7.5s-3.357-7.5-7.5-7.5h-4.761c-4.143 0-7.5 3.357-7.5 7.5s3.358 7.5 7.5 7.5z" fill="#d4202b" data-original="#000000" style=""/>
      <path d="m72.995 111.156h54.76c4.143 0 7.5-3.357 7.5-7.5s-3.357-7.5-7.5-7.5h-54.76c-4.143 0-7.5 3.357-7.5 7.5s3.358 7.5 7.5 7.5z" fill="#d4202b" data-original="#000000" style=""/>
      <path d="m43.616 143.528h4.761c4.143 0 7.5-3.357 7.5-7.5s-3.357-7.5-7.5-7.5h-4.761c-4.143 0-7.5 3.357-7.5 7.5s3.358 7.5 7.5 7.5z" fill="#d4202b" data-original="#000000" style=""/>
      <path d="m135.255 136.028c0-4.143-3.357-7.5-7.5-7.5h-54.76c-4.143 0-7.5 3.357-7.5 7.5s3.357 7.5 7.5 7.5h54.76c4.142 0 7.5-3.357 7.5-7.5z" fill="#d4202b" data-original="#000000" style=""/>
      <path d="m235.423 204.447h4.761c4.143 0 7.5-3.357 7.5-7.5s-3.357-7.5-7.5-7.5h-4.761c-4.143 0-7.5 3.357-7.5 7.5s3.357 7.5 7.5 7.5z" fill="#d4202b" data-original="#000000" style=""/>
      <path d="m319.562 189.447h-54.761c-4.143 0-7.5 3.357-7.5 7.5s3.357 7.5 7.5 7.5h54.761c4.143 0 7.5-3.357 7.5-7.5s-3.358-7.5-7.5-7.5z" fill="#d4202b" data-original="#000000" style=""/>
      <path d="m235.423 236.819h4.761c4.143 0 7.5-3.357 7.5-7.5s-3.357-7.5-7.5-7.5h-4.761c-4.143 0-7.5 3.357-7.5 7.5s3.357 7.5 7.5 7.5z" fill="#d4202b" data-original="#000000" style=""/>
      <path d="m319.562 221.819h-54.761c-4.143 0-7.5 3.357-7.5 7.5s3.357 7.5 7.5 7.5h54.761c4.143 0 7.5-3.357 7.5-7.5s-3.358-7.5-7.5-7.5z" fill="#d4202b" data-original="#000000" style=""/>
      <path d="m235.423 269.191h4.761c4.143 0 7.5-3.357 7.5-7.5s-3.357-7.5-7.5-7.5h-4.761c-4.143 0-7.5 3.357-7.5 7.5s3.357 7.5 7.5 7.5z" fill="#d4202b" data-original="#000000" style=""/>
      <path d="m327.062 261.691c0-4.143-3.357-7.5-7.5-7.5h-54.761c-4.143 0-7.5 3.357-7.5 7.5s3.357 7.5 7.5 7.5h54.761c4.142 0 7.5-3.357 7.5-7.5z" fill="#d4202b" data-original="#000000" style=""/>
      <path d="m91.85 347.558h-41.233c-4.143 0-7.5 3.357-7.5 7.5s3.357 7.5 7.5 7.5h41.233c4.143 0 7.5-3.357 7.5-7.5s-3.358-7.5-7.5-7.5z" fill="#d4202b" data-original="#000000" style=""/>
      <path d="m91.85 375.587h-41.233c-4.143 0-7.5 3.357-7.5 7.5s3.357 7.5 7.5 7.5h41.233c4.143 0 7.5-3.357 7.5-7.5s-3.358-7.5-7.5-7.5z" fill="#d4202b" data-original="#000000" style=""/>
      <path d="m91.85 403.617h-41.233c-4.143 0-7.5 3.357-7.5 7.5s3.357 7.5 7.5 7.5h41.233c4.143 0 7.5-3.357 7.5-7.5s-3.358-7.5-7.5-7.5z" fill="#d4202b" data-original="#000000" style=""/>
      <path d="m91.85 431.646h-41.233c-4.143 0-7.5 3.357-7.5 7.5s3.357 7.5 7.5 7.5h41.233c4.143 0 7.5-3.357 7.5-7.5s-3.358-7.5-7.5-7.5z" fill="#d4202b" data-original="#000000" style=""/>
      <path d="m208.888 454.458c-3.979 1.153-6.27 5.312-5.117 9.291 1.153 3.98 5.321 6.267 9.291 5.117 30.794-8.923 52.3-37.556 52.3-69.63 0-39.979-32.525-72.504-72.504-72.504s-72.503 32.525-72.503 72.504c0 34.979 24.944 64.96 59.312 71.285.459.085.915.125 1.366.125 3.548 0 6.702-2.528 7.367-6.144.75-4.073-1.944-7.983-6.019-8.733-27.249-5.016-47.026-28.791-47.026-56.533 0-29.167 21.826-53.331 50.003-57.017v57.017c0 4.143 3.357 7.5 7.5 7.5h57.007c-2.97 22.304-18.988 41.351-40.977 47.722zm-8.531-62.722v-49.516c25.723 3.364 46.152 23.794 49.517 49.517h-49.517z" fill="#d4202b" data-original="#000000" style=""/>
    </g>
  </g>
</svg>
